<?xml version="1.0" encoding="UTF-8" standalone="no"?>
<svg
   xmlns:dc="http://purl.org/dc/elements/1.1/"
   xmlns:cc="http://creativecommons.org/ns#"
   xmlns:rdf="http://www.w3.org/1999/02/22-rdf-syntax-ns#"
   xmlns:svg="http://www.w3.org/2000/svg"
   xmlns="http://www.w3.org/2000/svg"
   xmlns:sodipodi="http://sodipodi.sourceforge.net/DTD/sodipodi-0.dtd"
   xmlns:inkscape="http://www.inkscape.org/namespaces/inkscape"
   version="1.1"
   id="Capa_1"
   x="0px"
   y="0px"
   viewBox="0 0 251.479 251.479"
   style="enable-background:new 0 0 251.479 251.479;"
   xml:space="preserve"
   sodipodi:docname="home.svg"
   inkscape:version="1.0.2 (e86c870879, 2021-01-15, custom)"><metadata
   id="metadata94"><rdf:RDF><cc:Work
       rdf:about=""><dc:format>image/svg+xml</dc:format><dc:type
         rdf:resource="http://purl.org/dc/dcmitype/StillImage" /></cc:Work></rdf:RDF></metadata><defs
   id="defs92" /><sodipodi:namedview
   pagecolor="#ffffff"
   bordercolor="#666666"
   borderopacity="1"
   objecttolerance="10"
   gridtolerance="10"
   guidetolerance="10"
   inkscape:pageopacity="0"
   inkscape:pageshadow="2"
   inkscape:window-width="1280"
   inkscape:window-height="897"
   id="namedview90"
   showgrid="false"
   inkscape:zoom="1.3679075"
   inkscape:cx="76.33071"
   inkscape:cy="144.84838"
   inkscape:window-x="-8"
   inkscape:window-y="-8"
   inkscape:window-maximized="1"
   inkscape:current-layer="Capa_1" />
<g
   id="g57"
   style="fill:#ffffff">
	<path
   d="m 209.355,135.551 c -4.143,0 -7.5,3.358 -7.5,7.5 V 219.16 H 49.634 v -76.109 c 0,-4.142 -3.357,-7.5 -7.5,-7.5 -4.143,0 -7.5,3.358 -7.5,7.5 v 83.609 c 0,4.142 3.357,7.5 7.5,7.5 h 167.221 c 4.143,0 7.5,-3.358 7.5,-7.5 v -83.609 c 0,-4.142 -3.358,-7.5 -7.5,-7.5 z"
   id="path53"
   style="fill:#ffffff" />
	<path
   d="M 249.282,137.748 131.035,19.515 c -2.928,-2.929 -7.677,-2.928 -10.606,0 L 2.197,137.748 c -2.929,2.929 -2.929,7.678 0,10.606 1.465,1.464 3.385,2.197 5.304,2.197 1.92,0 3.839,-0.732 5.304,-2.197 l 112.929,-112.93 112.943,112.93 c 2.928,2.929 7.677,2.928 10.607,-0.001 2.927,-2.928 2.927,-7.677 -0.002,-10.605 z"
   id="path55"
   style="fill:#ffffff" />
</g>
<g
   id="g59">
</g>
<g
   id="g61">
</g>
<g
   id="g63">
</g>
<g
   id="g65">
</g>
<g
   id="g67">
</g>
<g
   id="g69">
</g>
<g
   id="g71">
</g>
<g
   id="g73">
</g>
<g
   id="g75">
</g>
<g
   id="g77">
</g>
<g
   id="g79">
</g>
<g
   id="g81">
</g>
<g
   id="g83">
</g>
<g
   id="g85">
</g>
<g
   id="g87">
</g>
</svg>
